<?xml version="1.0" encoding="UTF-8"?>
<svg xmlns="http://www.w3.org/2000/svg" viewBox="0 0 140 37"><path d="M18.060035-.00007c9.975 0 18.06 8.085 18.06 18.06 0 9.975-8.085 18.06-18.06 18.06h-.735c-2.135-.07-3.955-1.575-4.375-3.675-.805-4.725-4.55-8.4-9.275-9.17-2.03-.455-3.535-2.205-3.64-4.27v.175c-.035-.35-.035-.735-.035-1.12 0-9.975 8.085-18.06 18.06-18.06zm90.194825 12.21514c.217778 0 .407901.1659259.447462.3748697l.007538.0801303.03535 2.205c0 5.425-1.71535 8.995-4.69035 13.3-.318182.4454545-.809628.7173554-1.343648.7631104l-.161352.0068896h-1.08465c-.07 0-.14035-.03535-.175-.07-.14035-.105-.175-.28-.07-.42 4.031325-5.6033333 5.328023-8.7718849 5.387485-13.2825047l.002165-.3324953v-2.17c0-.2177778.166202-.4079012.375208-.4474623l.080142-.0075377h1.18965zm1.36535 8.81993c.217778 0 .407625.1659259.447124.3748697l.007526.0801303v5.285h4.235c.245 0 .45535.21.45535.49 0 .8621053-.659982 1.5671468-1.502901 1.6389736L113.12021 28.91h-3.15c-1.036016 0-1.91226-.8291529-1.989778-1.8481992L107.97486 26.915V21.49c0-.2177778.165926-.4079012.37487-.4474623l.08013-.0075377h1.19035zM89.84493 7.21007c.24535 0 .42035.175.42035.42 0 .945-.73535 1.75-1.68035 1.82-.41965.035-.875.07-1.33.07.245 4.655.875 11.655 3.255 18.86465.035.03535.035.07035.035.10535.0311111.1866667-.1037037.3730568-.306118.4121723l-.078882.0074777h-.105c-.945 0-1.785-.62965-2.06465-1.53965-2.0706424-6.6524606-2.659964-13.0738865-2.8852608-17.44615838L85.08493 9.52007h-4.935c-.1026667 7.1866667-1.476879 14.1056395-2.159549 17.0597693l-.045451.1952307h4.44535c-.4390875-2.93625-.9429388-5.416875-1.1038975-6.217964l-.0164525-.082036v-.07c0-.175.14-.315.315-.315 1.05 0 1.925.735 2.135 1.75.21 1.155.56 2.975.84 5.005.035.31465 0 .66465-.14.98-.259675.585-.7915607.9889286-1.4266787 1.043648l-.1483213.006352h-5.39c-.735 0-1.4-.49035-1.645-1.19035-.105-.31465-.105-.62965-.035-.94465.4810981-2.0603774 2.0733487-9.2755856 2.2654864-16.81944693L78.04993 9.48507h-4.095c-.035 5.46-.28 11.37465-1.925 17.745-.2313889.925225-1.0247222 1.5701022-1.9377289 1.6388995l-.1622711.0061005h-.105c-.21-.07-.35-.31535-.28-.525 1.99535-6.755 2.275-13.125 2.31-18.97 0-1.06909091.8294718-1.91494835 1.8482427-1.98963561L73.84993 7.38507h12.91535c.81172 0 1.623664-.0448 2.4356528-.11648l.6089972-.05852h.035zm44.765 8.85479c.217778 0 .408178.1659259.4478.3751155l.00755.0802345v3.18465c.030319.98-.099876 1.960268-.343924 2.9166532l-.111426.4083468h1.47c.21035 0 .42.105.525.28.63 1.015 1.68 2.66035 2.94 4.9.035.07.07035.175.07035.245 0 .2177778-.166202.4079012-.375208.4474623l-.080142.0075377h-1.085c-.35 0-.665-.175-.84-.48965-1.365-2.38-2.45-4.025-2.86965-4.69035-.66535 1.54035-1.575 2.94035-2.66035 4.2-.451985.5815385-1.143146.924497-1.879683.9738188l-.184967.0061812h-.94535c-.07 0-.14-.035-.21-.06965-.105-.10535-.105-.31535 0-.42 3.36875-3.7430556 4.422052-5.6665702 4.477969-8.4726082l.002381-.2427418v-3.18465c0-.2180889.165649-.4082469.374532-.4478118l.080118-.0075382h1.19zM66.5 7.21c.245 0 .42.175.42.42 0 .945-.735 1.75-1.68 1.82-.4725.02625-.945.0525-1.3879688.06398437L63.42 9.52h-3.99v3.71h4.69c1.0356818 0 1.9119112.8291529 1.9894285 1.8481992L66.115 15.225V26.88c0 1.0356818-.8291529 1.9119112-1.8481992 1.9894285L64.12 28.875H47.46c-1.0356818 0-1.9119112-.8291529-1.9894285-1.8481992L45.465 26.88V15.19c0-1.0356818.8291529-1.9119112 1.8481992-1.9894285L47.46 13.195h4.69v-3.71h-7.105c-.2177778 0-.4079012-.16592593-.4474623-.37486968L44.59 9.03V7.84c0-.21777778.1659259-.40790123.3748697-.44746228L45.045 7.385H63.42c.812 0 1.624-.0448 2.436-.11648l.609-.05852h.035zm29.89007-.035035c.8621053 0 1.5668327.65966759 1.6386264 1.50285173l.0060236.14214827v.7h.77035c.42 0 .84.14 1.19.42.525.49.735 1.225.48965 1.925-.5596889 1.5244444-1.2579259 2.9659259-2.1192927 4.3490261l-.3307073.5159739v11.69c0 .2177778-.1656494.4079012-.3745317.4474623l-.0801183.0075377h-1.19c-.2177778 0-.4081778-.1659259-.4478003-.3748697l-.0075497-.0801303v-8.96c-.875 1.015-1.81965 1.96-2.83465 2.8-.035.035-.105.07-.175.07-.15 0-.2745429-.0771429-.3070653-.2093878l-.0082847-.0706122v-1.75c0-.28.14035-.525.31535-.7 2.2147222-2.1155556 3.9923765-4.668179 5.215024-7.4809619l.209976-.4990381h-5.25c-.2177778 0-.4079012-.1659259-.4474623-.3748697l-.0075377-.0801303v-1.19c0-.21777778.1659259-.40790123.3748697-.44746228L93.10007 9.519965h2.83465v-1.89c0-.245.21035-.455.45535-.455zM126.94507 17.85c.13965 0 .245.07.28.175.105.07.14.175.14.315-.068814 4.6449153-1.592043 8.1736512-8.725978 10.3202053L118.26507 28.77h-.07c-.12 0-.24-.0771429-.271837-.2093878L117.91507 28.49v-1.085c0-.455.24465-.805.665-.945 3.85-1.225 6.3-2.835 6.65-7.035.10465-.91.84-1.575 1.715-1.575zM57.295 15.33H54.25c-.035 3.115-.385 5.495-4.305 7.385-.035.035-.105.035-.14.035-.12 0-.24-.0771429-.2718367-.2093878L49.525 22.47v-1.33c0-.35.175-.665.455-.84 1.8225-1.1475 2.1154018-2.3926339 2.1339987-4.6768718L52.115 15.365H47.53V26.81h16.415V15.365h-4.55v4.725h3.01c.245 0 .455.21.455.455 0 .8621053-.6596676 1.5671468-1.5028517 1.6389736L61.215 22.19H59.29c-1.0356818 0-1.9119112-.8291529-1.9894285-1.8481992L57.295 20.195V15.33zm-44.1-2.02993c-.875 3.115-.875 6.44 0 9.555.455 1.54 2.03 2.45 3.605 2.065 3.15-.77 6.055-2.415 8.295-4.76035 1.085-1.15465 1.085-2.97465 0-4.16465-2.275-2.345-5.145-3.99-8.295-4.76-1.575-.385-3.15.525-3.605 2.065zm126.13993-6.09c.245 0 .42.175.42.42 0 .945-.735 1.75-1.68 1.82-.4725.02625-.944803.0525-1.387821.06398437l-.432179.00601563h-1.33c-.093333.6222222-.241975 1.4933333-.445926 2.441262l-.079074.358738h2.52c1.035682 0 1.91223.8291529 1.989776 1.8481992l.005574.1468008v8.225c0 .2174667-.166202.4078321-.375208.4474508l-.080142.0075492h-1.19c-.217778 0-.407625-.1662025-.447124-.3749619l-.007526-.0800381v-8.12h-5.6v8.155c0 .2177778-.166202.4079012-.375208.4474623l-.080142.0075377h-1.19c-.217778 0-.407625-.1659259-.447124-.3748697l-.007526-.0801303v-8.26c0-1.0356818.828834-1.9119112 1.847851-1.9894285l.146799-.0055715h1.15535c.186356-.9333333.372988-1.8390123.486151-2.54496571l.038849-.25503429h-3.71035c-.248889 0-.414815-.16592593-.473196-.3994513l-.016804-.0905487v-1.19c0-.21777778.165926-.40790123.37487-.44746228l.08013-.00753772h7.21c.812 0 1.624-.0448 2.436-.11648l.609-.05852h.035zM119.98 17.85c.245 0 .455.21.455.455-.035.735-.07 1.435-.14 2.135-.14 1.015-.98 1.785-1.995 1.785 0 .035-.035.035-.035.035-.21-.07-.315-.245-.28-.455.21-1.155.35-2.31.35-3.5 0-.2177778.165926-.4079012.37487-.4474623L118.79 17.85h1.19zm-8.575-10.465c1.085 0 1.995.91 1.995 1.995v12.39c0 .245-.21.455-.455.455h-1.19c-.245 0-.455-.21-.455-.455V9.52h-7.105v12.25c0 .245-.21.455-.455.455h-1.19c-.245 0-.455-.21-.49-.49V9.38c0-1.085.91-1.995 1.995-1.995h7.35zm12.25007-.20993c.217778 0 .407625.16592593.447124.37486968l.007526.08013032v1.89h3.01035c.248889 0 .414815.16592593.448615.3994513l.006385.0905487v1.19c0 .2177778-.165926.4079012-.37487.4474623l-.08013.0075377h-3.01035v2.52h3.01035c.217778 0 .407901.1659259.447462.3748697l.007538.0801303v1.19c0 .2177778-.165926.4079012-.37487.4474623l-.08013.0075377h-3.01035v4.27c0 .91-.73465 1.645-1.64465 1.645-.217778 0-.408178-.1659259-.4478-.3751155l-.00755-.0802345v-5.45965h-1.71465c-1.036016 0-1.911942-.8291529-1.989431-1.8481992l-.005569-.1468008v-5.495c0-.245.20965-.455.455-.455.862105 0 1.567147.65966759 1.638974 1.50285173l.006026.14214827v4.2h1.60965v-6.545c0-.21777778.166202-.40790123.375208-.44746228l.080142-.00753772h1.19zM99.89028 17.29014c.244694 0 .436062.1069195.550422.2980147l.044228.0869853.98035 2.48465c.06965.175.06965.31535-.03535.45535-.105.13965-.245.21-.35.175-.885938 0-1.7103516-.5229492-2.0983337-1.3092957L98.90993 19.32014l-.665-1.645c-.035-.035-.035-.07035-.035-.105 0-.1203.0774-.2400857.2097184-.2718551l.0706316-.0081449h1.4zM57.295 9.52H54.25v3.71h3.045V9.52z" fill="#000" fill-rule="evenodd" fill-opacity=".04"/></svg>